<?xml version="1.0" encoding="UTF-8" standalone="no"?>
<!DOCTYPE svg PUBLIC "-//W3C//DTD SVG 1.1//EN" "http://www.w3.org/Graphics/SVG/1.1/DTD/svg11.dtd">
<svg width="100%" height="100%" viewBox="0 0 500 500" version="1.1" xmlns="http://www.w3.org/2000/svg" xmlns:xlink="http://www.w3.org/1999/xlink" xml:space="preserve" style="fill-rule:evenodd;clip-rule:evenodd;stroke-linecap:round;stroke-linejoin:round;stroke-miterlimit:1.41421;">
    <g transform="matrix(1.24675,-7.7448e-18,-7.58674e-18,1.30435,-89.7403,-55.2174)">
        <path d="M465,81.453C465,64.093 450.255,50 432.094,50L112.906,50C94.745,50 80,64.093 80,81.453L80,386.547C80,403.907 94.745,418 112.906,418L432.094,418C450.255,418 465,403.907 465,386.547L465,81.453Z" style="fill:rgb(235,235,235);stroke-width:0.78px;stroke:black;"/>
    </g>
    <g transform="matrix(1.00052,-6.21523e-18,-6.08839e-18,1.04674,-22.6427,5.06205)">
        <path d="M465,81.453C465,64.093 450.255,50 432.094,50L112.906,50C94.745,50 80,64.093 80,81.453L80,386.547C80,403.907 94.745,418 112.906,418L432.094,418C450.255,418 465,403.907 465,386.547L465,81.453Z" style="fill:rgb(235,235,235);stroke-width:0.98px;stroke:black;"/>
    </g>
    <g transform="matrix(1,0,0,1,0,-4.57973)">
        <g transform="matrix(1,0,0,1,3,5)">
            <circle cx="247" cy="367" r="25" style="fill:rgb(0,136,255);"/>
        </g>
        <g transform="matrix(1.4,0,0,1.4,-95.8,-141.8)">
            <circle cx="247" cy="367" r="25" style="fill:none;stroke-width:2.14px;stroke:rgb(0,136,255);"/>
        </g>
        <g transform="matrix(1.8,0,0,1.8,-194.6,-288.6)">
            <circle cx="247" cy="367" r="25" style="fill:none;stroke-width:1.67px;stroke:rgb(0,136,255);"/>
        </g>
        <g transform="matrix(2.2,0,0,2.2,-293.4,-435.4)">
            <circle cx="247" cy="367" r="25" style="fill:none;stroke-width:1.36px;stroke:rgb(0,136,255);"/>
        </g>
    </g>
</svg>
