<?xml version="1.0" standalone="no"?>
<!DOCTYPE svg PUBLIC "-//W3C//DTD SVG 20010904//EN"
 "http://www.w3.org/TR/2001/REC-SVG-20010904/DTD/svg10.dtd">
<svg version="1.0" xmlns="http://www.w3.org/2000/svg"
 width="200.000000pt" height="200.000000pt" viewBox="0 0 200.000000 200.000000"
 preserveAspectRatio="xMidYMid meet">
<g transform="translate(0.000000,200.000000) scale(0.100000,-0.100000)"
fill="#000000" stroke="none">
<path d="M562 1577 l-422 -422 365 -365 366 -364 422 422 422 422 -365 365
-365 365 -423 -423z m1108 -298 c7 -12 -76 -100 -395 -419 l-403 -403 -346
348 c-190 191 -346 350 -346 353 0 4 181 188 402 409 l403 402 337 -337 c186
-185 343 -344 348 -353z"/>
<path d="M854 1719 c-69 -68 -130 -132 -136 -143 -13 -25 8 -46 53 -51 87 -11
348 -47 384 -53 l40 -8 7 -64 c3 -36 9 -83 12 -105 3 -22 13 -93 21 -159 17
-130 19 -136 43 -136 21 0 272 248 272 269 0 15 -491 515 -543 553 l-28 20
-125 -123z m551 -579 c-71 -72 -131 -127 -132 -123 -1 5 -16 111 -32 236 -16
126 -31 231 -34 233 -4 4 -219 35 -390 56 l-98 12 133 133 133 133 275 -275
275 -275 -130 -130z"/>
<path d="M589 1453 c-163 -157 -284 -285 -281 -299 3 -15 513 -528 548 -550
19 -13 24 -11 55 14 72 59 329 326 329 342 0 18 -77 104 -101 113 -11 4 -50
-29 -125 -104 -60 -60 -114 -109 -120 -109 -6 0 -34 23 -63 51 l-52 52 20 21
c11 12 47 49 81 84 33 35 60 70 60 78 0 8 -23 37 -51 65 -58 58 -44 62 -158
-48 -74 -72 -75 -73 -95 -54 -12 10 -34 30 -50 45 l-29 27 101 102 c56 56 102
109 102 117 0 18 -70 112 -88 118 -7 2 -44 -27 -83 -65z m119 -5 l34 -51 -108
-108 -108 -108 62 -63 62 -63 92 92 93 92 47 -47 48 -48 -90 -89 -90 -90 72
-72 73 -73 120 120 121 120 47 -48 47 -47 -179 -179 -178 -178 -275 275 -276
274 172 172 c94 94 173 171 176 171 3 0 20 -23 38 -52z"/>
<path d="M1745 1210 c-16 -16 -27 -31 -24 -32 2 -2 25 -23 51 -47 l46 -43 31
30 c34 32 25 58 -8 28 -10 -10 -25 -14 -35 -10 -16 6 -16 8 0 25 20 22 12 38
-10 20 -10 -8 -21 -9 -31 -4 -14 8 -13 11 5 28 21 19 26 35 12 35 -5 0 -21
-13 -37 -30z"/>
<path d="M1670 1134 c-8 -9 -5 -16 11 -28 19 -13 20 -18 9 -31 -16 -20 -30
-19 -46 3 -9 12 -16 14 -24 6 -8 -8 2 -24 36 -57 26 -26 51 -47 55 -47 17 0 9
30 -12 40 -20 11 -20 12 -3 31 17 19 18 19 41 -3 16 -15 27 -18 33 -12 7 7 -6
27 -40 61 -38 39 -52 47 -60 37z"/>
<path d="M1889 1072 l-27 -28 49 -51 48 -50 20 21 c12 12 21 31 21 41 0 18 -1
18 -16 -3 -18 -26 -30 -28 -38 -5 -5 11 -1 22 9 29 11 8 13 14 5 19 -6 4 -19
0 -29 -9 -16 -15 -19 -15 -24 -2 -3 8 1 20 9 26 15 13 19 40 6 40 -4 0 -19
-13 -33 -28z"/>
<path d="M85 1060 l29 -30 -35 0 c-80 0 -101 -26 -56 -68 35 -33 56 -27 23 7
l-28 29 54 7 c76 10 84 20 44 56 -44 38 -68 38 -31 -1z"/>
<path d="M1546 1011 c-21 -21 -33 -41 -28 -45 5 -3 15 1 22 10 12 13 19 10 56
-27 59 -58 81 -42 23 17 -34 34 -40 47 -31 56 7 7 12 16 12 20 0 17 -17 7 -54
-31z"/>
<path d="M1802 985 c-10 -12 -8 -22 13 -55 14 -22 25 -42 25 -45 0 -3 -18 7
-40 21 -37 24 -70 27 -70 6 0 -5 19 -33 41 -61 30 -37 45 -49 52 -42 8 8 0 23
-28 51 -45 46 -41 50 16 14 40 -25 77 -26 63 -2 -4 7 -18 30 -31 51 -29 47
-17 48 27 2 24 -25 37 -32 44 -24 8 7 5 14 -8 24 -10 8 -33 28 -52 44 -38 36
-35 35 -52 16z"/>
<path d="M115 960 c-8 -14 37 -51 49 -40 4 4 -1 17 -13 29 -24 24 -27 25 -36
11z"/>
<path d="M197 881 c-30 -51 -33 -62 -21 -72 11 -9 21 -6 48 15 47 35 51 33 20
-13 -24 -37 -26 -61 -4 -61 13 0 120 64 120 73 0 15 -34 6 -66 -18 -46 -35
-49 -31 -15 19 25 36 28 46 17 55 -10 8 -23 4 -55 -19 -22 -17 -41 -28 -41
-26 0 3 11 22 25 42 14 20 25 43 25 50 0 28 -19 12 -53 -45z"/>
<path d="M1407 870 c-53 -42 -22 -104 36 -73 22 11 32 12 41 3 8 -9 4 -17 -16
-34 -31 -24 -35 -36 -15 -36 25 0 59 46 55 76 -4 35 -35 43 -71 19 -15 -10
-28 -12 -31 -6 -7 10 15 36 36 44 9 3 10 8 2 16 -8 9 -17 6 -37 -9z"/>
<path d="M1664 838 c-25 -12 -47 -54 -38 -71 31 -55 86 -74 117 -39 32 36 22
84 -23 107 -16 8 -30 15 -32 14 -2 0 -13 -5 -24 -11z m56 -42 c41 -45 -1 -87
-46 -46 -23 23 -31 50 -17 63 13 14 40 6 63 -17z"/>
<path d="M1295 756 l-30 -25 50 -51 50 -51 23 26 c29 34 28 76 -1 103 -30 28
-55 28 -92 -2z m80 -30 c14 -22 12 -56 -4 -56 -13 0 -71 66 -65 73 16 15 54 6
69 -17z"/>
<path d="M340 743 c-65 -29 -64 -29 -55 -42 4 -8 12 -8 24 -1 25 13 60 -23 42
-43 -8 -11 -8 -17 2 -25 10 -9 20 3 46 55 25 52 29 68 19 74 -17 11 -13 12
-78 -18z m44 -28 c-12 -19 -20 -23 -28 -15 -8 8 -4 16 14 30 31 24 36 19 14
-15z"/>
<path d="M1555 739 c-4 -6 3 -17 15 -26 20 -14 20 -16 4 -34 -17 -19 -18 -19
-40 2 -15 14 -24 17 -29 9 -10 -16 86 -113 99 -100 6 6 2 18 -12 33 -22 23
-22 24 -3 41 19 17 20 17 36 -8 14 -21 20 -24 32 -15 12 10 6 20 -34 61 -50
50 -58 55 -68 37z"/>
<path d="M435 644 c-18 -42 -24 -69 -18 -75 6 -6 34 2 77 22 50 23 65 34 56
43 -8 8 -24 4 -60 -15 -28 -15 -50 -26 -50 -24 0 1 12 23 26 49 23 42 25 66 5
66 -4 0 -21 -30 -36 -66z"/>
<path d="M1195 660 c-4 -7 12 -31 41 -61 l48 -49 30 30 c21 20 27 33 20 40 -7
7 -16 4 -29 -10 l-19 -21 -42 42 c-28 28 -44 37 -49 29z"/>
<path d="M1135 600 c-10 -17 86 -113 99 -100 7 7 -6 27 -41 61 -34 35 -53 47
-58 39z"/>
<path d="M527 552 l-47 -48 34 -33 c22 -21 36 -29 41 -22 3 7 -4 20 -16 30
-21 16 -22 21 -9 36 13 15 15 15 30 -6 13 -16 19 -19 25 -9 5 8 1 18 -10 27
-15 10 -16 16 -7 25 9 9 16 8 30 -5 17 -16 42 -23 42 -13 0 4 -60 66 -64 66
-1 0 -23 -22 -49 -48z"/>
<path d="M1371 555 c-17 -20 -29 -41 -25 -47 5 -8 11 -6 19 6 12 15 17 13 54
-25 32 -33 44 -40 53 -31 9 9 2 21 -31 50 -38 34 -41 39 -27 51 15 13 13 31
-3 31 -4 0 -22 -16 -40 -35z"/>
<path d="M1076 543 c-3 -4 12 -26 34 -48 39 -40 40 -43 24 -59 -16 -16 -19
-15 -59 24 -56 55 -74 35 -19 -21 42 -43 58 -47 92 -23 32 22 27 55 -16 97
-40 39 -44 41 -56 30z"/>
<path d="M1282 463 l-33 -28 49 -49 c30 -29 55 -45 62 -41 8 5 5 15 -12 32
l-23 26 41 -7 c31 -4 45 -2 54 9 11 13 7 15 -24 15 -31 0 -36 3 -36 23 0 24
-17 47 -35 47 -6 0 -25 -12 -43 -27z m54 -14 c3 -6 0 -17 -8 -25 -13 -13 -16
-13 -28 1 -12 14 -11 18 1 26 19 12 26 11 35 -2z"/>
<path d="M940 403 l-31 -28 50 -49 c53 -53 55 -53 93 3 21 30 7 66 -22 58 -14
-3 -20 1 -22 16 -4 32 -32 32 -68 0z m50 -17 c0 -8 -5 -18 -11 -22 -14 -8 -33
11 -25 25 10 16 36 13 36 -3z m50 -33 c0 -5 -7 -16 -14 -26 -12 -15 -15 -15
-26 -3 -6 9 -9 20 -5 26 7 11 45 14 45 3z"/>
<path d="M592 403 c4 -21 33 -25 33 -3 0 8 -8 16 -18 18 -14 3 -18 -1 -15 -15z"/>
<path d="M718 396 c-15 -13 -37 -31 -50 -40 -17 -12 -20 -18 -10 -28 9 -9 21
-3 53 27 l42 40 -29 -52 c-16 -29 -25 -56 -20 -60 4 -4 30 5 58 20 l51 29 -37
-43 c-24 -28 -33 -46 -26 -53 5 -5 11 -8 13 -5 2 2 22 27 45 55 36 45 40 53
27 64 -12 10 -22 8 -55 -14 -22 -14 -42 -26 -45 -26 -3 0 6 20 20 45 38 64 17
88 -37 41z"/>
<path d="M1185 370 c-7 -12 45 -140 57 -140 14 0 20 21 9 34 -15 18 18 47 46
40 11 -3 24 -1 27 4 3 6 -24 24 -60 41 -76 36 -71 34 -79 21z m53 -34 c20 -10
21 -14 9 -24 -12 -10 -18 -8 -31 13 -18 28 -13 31 22 11z"/>
<path d="M1100 285 c-10 -12 -7 -23 15 -61 l27 -46 -46 27 c-38 22 -49 25 -61
15 -13 -11 -9 -20 27 -64 23 -28 43 -53 45 -55 2 -3 9 1 15 7 9 9 3 22 -27 53
-41 43 -38 43 28 2 50 -32 58 -11 21 54 l-27 48 34 -30 c18 -16 37 -34 41 -40
5 -6 12 -5 19 2 7 7 11 14 8 16 -2 2 -27 22 -55 45 -44 36 -53 40 -64 27z"/>
<path d="M837 242 l-47 -48 30 -29 c22 -21 33 -26 41 -18 8 8 4 15 -12 26 -19
14 -20 19 -9 32 12 14 15 14 30 0 23 -21 34 -6 13 17 -12 14 -14 21 -5 30 8 8
16 5 30 -12 12 -14 24 -20 31 -15 9 5 5 15 -15 36 -15 16 -30 29 -34 29 -3 0
-27 -22 -53 -48z"/>
<path d="M955 135 c-26 -26 -30 -41 -16 -64 9 -13 24 -12 79 4 32 10 29 -18
-5 -43 -15 -11 -22 -22 -16 -25 14 -9 60 28 68 54 4 11 1 26 -5 34 -14 17 -56
20 -65 5 -9 -15 -35 -12 -35 4 0 8 9 18 20 21 21 7 28 35 10 35 -6 0 -22 -11
-35 -25z"/>
</g>
</svg>
